# Created by FreeCAD <http://www.freecadweb.org>
v 0.000000 0.000000 0.000000
v 0.000000 0.500000 25.000000
v 0.000000 0.500000 0.000000
v 0.000000 0.000000 25.000000
v 1.000000 0.000000 24.000000
v 1.000000 0.000000 1.000000
v 25.000000 0.000000 0.000000
v 24.000000 0.000000 1.000000
v 24.000000 0.000000 24.000000
v 25.000000 0.000000 25.000000
v 25.000000 0.500000 25.000000
v 1.000000 0.500000 24.000000
v 1.000000 0.500000 1.000000
v 24.000000 0.500000 1.000000
v 25.000000 0.500000 0.000000
v 24.000000 0.500000 24.000000
vn -1.000000 0.000000 0.000000
vn -1.000000 0.000000 0.000000
vn 0.000000 -1.000000 0.000000
vn -0.000000 -1.000000 0.000000
vn 0.000000 -1.000000 0.000000
vn 0.000000 -1.000000 0.000000
vn 0.000000 -1.000000 0.000000
vn 0.000000 -1.000000 0.000000
vn 0.000000 -1.000000 0.000000
vn 0.000000 -1.000000 0.000000
vn 0.000000 0.000000 1.000000
vn 0.000000 0.000000 1.000000
vn 0.000000 1.000000 0.000000
vn 0.000000 1.000000 0.000000
vn 0.000000 1.000000 0.000000
vn 0.000000 1.000000 0.000000
vn 0.000000 1.000000 0.000000
vn 0.000000 1.000000 0.000000
vn 0.000000 1.000000 0.000000
vn 0.000000 1.000000 0.000000
vn 0.000000 0.000000 -1.000000
vn 0.000000 0.000000 -1.000000
vn 1.000000 0.000000 0.000000
vn 1.000000 -0.000000 0.000000
vn 0.000000 0.000000 -1.000000
vn 0.000000 0.000000 -1.000000
vn -1.000000 0.000000 0.000000
vn -1.000000 0.000000 0.000000
vn 0.000000 0.000000 1.000000
vn 0.000000 0.000000 1.000000
vn 1.000000 -0.000000 0.000000
vn 1.000000 0.000000 0.000000
f 1//1 2//1 3//1
f 1//2 4//2 2//2
f 1//3 5//3 4//3
f 6//4 5//4 1//4
f 7//5 8//5 1//5
f 1//6 8//6 6//6
f 9//7 10//7 5//7
f 5//8 10//8 4//8
f 7//9 10//9 8//9
f 8//10 10//10 9//10
f 10//11 2//11 4//11
f 11//12 2//12 10//12
f 12//13 3//13 2//13
f 12//14 13//14 3//14
f 14//15 15//15 3//15
f 14//16 3//16 13//16
f 11//17 16//17 12//17
f 11//18 12//18 2//18
f 11//19 15//19 14//19
f 11//20 14//20 16//20
f 3//21 7//21 1//21
f 3//22 15//22 7//22
f 11//23 7//23 15//23
f 10//24 7//24 11//24
f 12//25 16//25 5//25
f 5//26 16//26 9//26
f 14//27 9//27 16//27
f 8//28 9//28 14//28
f 14//29 13//29 6//29
f 14//30 6//30 8//30
f 5//31 13//31 12//31
f 5//32 6//32 13//32
