# Created by FreeCAD <http://www.freecadweb.org>
v 105.699997 69.330109 44.626530
v 105.699997 68.900002 44.599998
v 99.099998 68.900002 44.599998
v 99.099998 69.330109 44.626530
v 105.699997 69.753700 44.705711
v 99.099998 69.753700 44.705711
v 105.699997 70.164345 44.836346
v 99.099998 70.164345 44.836346
v 105.699997 70.555824 45.016457
v 99.099998 70.555824 45.016457
v 105.699997 70.922211 45.243309
v 99.099998 70.922211 45.243309
v 105.699997 71.257935 45.513470
v 99.099998 71.257935 45.513470
v 105.699997 71.557915 45.822838
v 99.099998 71.557915 45.822838
v 105.699997 71.817612 46.166721
v 99.099998 71.817612 46.166721
v 105.699997 72.033073 46.539917
v 99.099998 72.033073 46.539917
v 105.699997 72.201042 46.936760
v 99.099998 72.201042 46.936760
v 105.699997 72.318970 47.351234
v 99.099998 72.318970 47.351234
v 105.699997 72.385071 47.777061
v 99.099998 72.385071 47.777061
v 105.699997 72.398338 48.207783
v 99.099998 72.398338 48.207783
v 105.699997 72.358582 48.636871
v 99.099998 72.358582 48.636871
v 105.699997 72.266388 49.057819
v 99.099998 72.266388 49.057819
v 105.699997 72.123169 49.464249
v 99.099998 72.123169 49.464249
v 105.699997 71.931091 49.849998
v 99.099998 71.931091 49.849998
v 105.699997 71.693062 50.209221
v 99.099998 71.693062 50.209221
v 105.699997 71.412689 50.536469
v 99.099998 71.412689 50.536469
v 105.699997 71.094231 50.826782
v 99.099998 71.094231 50.826782
v 105.699997 70.742516 51.075760
v 99.099998 70.742516 51.075760
v 105.699997 70.362862 51.279629
v 99.099998 70.362862 51.279629
v 105.699997 69.961037 51.435295
v 99.099998 69.961037 51.435295
v 105.699997 69.543121 51.540405
v 99.099998 69.543121 51.540405
v 105.699997 69.115463 51.593361
v 99.099998 69.115463 51.593361
v 105.699997 68.684540 51.593361
v 99.099998 68.684540 51.593361
v 105.699997 68.256874 51.540405
v 99.099998 68.256874 51.540405
v 105.699997 67.838966 51.435295
v 99.099998 67.838966 51.435295
v 105.699997 67.437141 51.279629
v 99.099998 67.437141 51.279629
v 105.699997 67.057487 51.075760
v 99.099998 67.057487 51.075760
v 105.699997 66.705765 50.826782
v 99.099998 66.705765 50.826782
v 105.699997 66.387306 50.536469
v 99.099998 66.387306 50.536469
v 105.699997 66.106941 50.209221
v 99.099998 66.106941 50.209221
v 105.699997 65.868912 49.849998
v 99.099998 65.868912 49.849998
v 105.699997 65.676834 49.464249
v 99.099998 65.676834 49.464249
v 105.699997 65.533607 49.057819
v 99.099998 65.533607 49.057819
v 105.699997 65.441422 48.636871
v 99.099998 65.441422 48.636871
v 105.699997 65.401657 48.207783
v 99.099998 65.401657 48.207783
v 105.699997 65.414932 47.777061
v 99.099998 65.414932 47.777061
v 105.699997 65.481033 47.351234
v 99.099998 65.481033 47.351234
v 105.699997 65.598961 46.936760
v 99.099998 65.598961 46.936760
v 105.699997 65.766930 46.539917
v 99.099998 65.766930 46.539917
v 105.699997 65.982391 46.166721
v 99.099998 65.982391 46.166721
v 105.699997 66.242081 45.822838
v 99.099998 66.242081 45.822838
v 105.699997 66.542068 45.513470
v 99.099998 66.542068 45.513470
v 105.699997 66.877792 45.243309
v 99.099998 66.877792 45.243309
v 105.699997 67.244171 45.016457
v 99.099998 67.244171 45.016457
v 105.699997 67.635651 44.836346
v 99.099998 67.635651 44.836346
v 105.699997 68.046303 44.705711
v 99.099998 68.046303 44.705711
v 105.699997 68.469894 44.626530
v 99.099998 68.469894 44.626530
v 105.699997 68.900002 46.599998
v 105.699997 67.482498 48.590603
v 105.699997 67.600960 48.849998
v 105.699997 69.183876 46.627106
v 105.699997 68.477402 49.539238
v 105.699997 70.357719 47.746361
v 105.699997 68.212662 49.433254
v 105.699997 69.457497 46.707447
v 105.699997 67.415268 48.313473
v 105.699997 70.264450 47.476879
v 105.699997 68.757416 49.593208
v 105.699997 70.121864 47.229916
v 105.699997 70.199036 48.849998
v 105.699997 67.401695 48.028625
v 105.699997 69.710960 46.838120
v 105.699997 68.089035 46.838120
v 105.699997 68.342506 46.707447
v 105.699997 69.935120 47.014400
v 105.699997 69.042587 49.593208
v 105.699997 67.442284 47.746361
v 105.699997 70.317505 48.590603
v 105.699997 69.322601 49.539238
v 105.699997 67.535553 47.476879
v 105.699997 69.587341 49.433254
v 105.699997 67.678139 47.229916
v 105.699997 69.827240 49.279079
v 105.699997 70.384735 48.313473
v 105.699997 67.864883 47.014400
v 105.699997 67.766373 49.082291
v 105.699997 68.616119 46.627106
v 105.699997 67.972763 49.279079
v 105.699997 70.033623 49.082291
v 105.699997 70.398300 48.028625
v 99.099998 68.900002 46.599998
v 99.099998 67.600960 48.849998
v 99.099998 67.482498 48.590603
v 99.099998 69.183876 46.627106
v 99.099998 68.477402 49.539238
v 99.099998 70.357719 47.746361
v 99.099998 68.212662 49.433254
v 99.099998 69.457497 46.707447
v 99.099998 67.415268 48.313473
v 99.099998 70.264450 47.476879
v 99.099998 68.757416 49.593208
v 99.099998 70.121864 47.229916
v 99.099998 70.199036 48.849998
v 99.099998 67.401695 48.028625
v 99.099998 69.710960 46.838120
v 99.099998 68.089035 46.838120
v 99.099998 68.342506 46.707447
v 99.099998 69.935120 47.014400
v 99.099998 69.042587 49.593208
v 99.099998 67.442284 47.746361
v 99.099998 70.317505 48.590603
v 99.099998 69.322601 49.539238
v 99.099998 67.535553 47.476879
v 99.099998 69.587341 49.433254
v 99.099998 67.678139 47.229916
v 99.099998 69.827240 49.279079
v 99.099998 70.384735 48.313473
v 99.099998 67.864883 47.014400
v 99.099998 67.766373 49.082291
v 99.099998 68.616119 46.627106
v 99.099998 67.972763 49.279079
v 99.099998 70.033623 49.082291
v 99.099998 70.398300 48.028625
vn 0.000000 0.061568 -0.998103
vn 0.000000 0.061568 -0.998103
vn 0.000000 0.183747 -0.982974
vn 0.000000 0.183747 -0.982974
vn 0.000000 0.303150 -0.952943
vn 0.000000 0.303150 -0.952943
vn 0.000000 0.417964 -0.908464
vn 0.000000 0.417964 -0.908464
vn 0.000000 0.526425 -0.850222
vn 0.000000 0.526425 -0.850222
vn 0.000000 0.626930 -0.779075
vn 0.000000 0.626930 -0.779075
vn 0.000000 0.717916 -0.696130
vn 0.000000 0.717916 -0.696130
vn 0.000000 0.798008 -0.602647
vn 0.000000 0.798008 -0.602647
vn 0.000000 0.866028 -0.499995
vn 0.000000 0.866028 -0.499995
vn 0.000000 0.920906 -0.389785
vn 0.000000 0.920906 -0.389785
vn 0.000000 0.961826 -0.273662
vn 0.000000 0.961826 -0.273662
vn 0.000000 0.988165 -0.153393
vn 0.000000 0.988165 -0.153393
vn 0.000000 0.999526 -0.030788
vn 0.000000 0.999526 -0.030788
vn 0.000000 0.995735 0.092259
vn 0.000000 0.995735 0.092259
vn 0.000000 0.976846 0.213943
vn 0.000000 0.976846 0.213943
vn 0.000000 0.943155 0.332352
vn 0.000000 0.943155 0.332352
vn 0.000000 0.895166 0.445733
vn 0.000000 0.895166 0.445733
vn 0.000000 0.833602 0.552365
vn 0.000000 0.833602 0.552365
vn 0.000000 0.759400 0.650624
vn 0.000000 0.759400 0.650624
vn 0.000000 0.673696 0.739008
vn 0.000000 0.673696 0.739008
vn 0.000000 0.577780 0.816193
vn 0.000000 0.577780 0.816193
vn 0.000000 0.473092 0.881013
vn 0.000000 0.473092 0.881013
vn 0.000000 0.361239 0.932473
vn 0.000000 0.361239 0.932473
vn 0.000000 0.243914 0.969797
vn 0.000000 0.243914 0.969797
vn 0.000000 0.122888 0.992420
vn 0.000000 0.122888 0.992420
vn 0.000000 -0.000000 1.000000
vn 0.000000 0.000000 1.000000
vn 0.000000 -0.122886 0.992421
vn 0.000000 -0.122886 0.992421
vn 0.000000 -0.243918 0.969796
vn 0.000000 -0.243918 0.969796
vn 0.000000 -0.361239 0.932473
vn 0.000000 -0.361239 0.932473
vn 0.000000 -0.473092 0.881013
vn 0.000000 -0.473092 0.881013
vn 0.000000 -0.577771 0.816199
vn 0.000000 -0.577771 0.816199
vn 0.000000 -0.673696 0.739008
vn 0.000000 -0.673696 0.739008
vn 0.000000 -0.759409 0.650613
vn 0.000000 -0.759409 0.650613
vn 0.000000 -0.833602 0.552365
vn 0.000000 -0.833602 0.552365
vn 0.000000 -0.895166 0.445733
vn 0.000000 -0.895166 0.445733
vn 0.000000 -0.943150 0.332368
vn 0.000000 -0.943150 0.332368
vn 0.000000 -0.976850 0.213926
vn 0.000000 -0.976850 0.213926
vn 0.000000 -0.995733 0.092276
vn 0.000000 -0.995733 0.092276
vn 0.000000 -0.999525 -0.030806
vn -0.000000 -0.999525 -0.030806
vn 0.000000 -0.988165 -0.153393
vn -0.000000 -0.988165 -0.153393
vn 0.000000 -0.961826 -0.273662
vn -0.000000 -0.961826 -0.273662
vn 0.000000 -0.920906 -0.389785
vn -0.000000 -0.920906 -0.389785
vn 0.000000 -0.866028 -0.499995
vn -0.000000 -0.866028 -0.499995
vn 0.000000 -0.798017 -0.602635
vn -0.000000 -0.798017 -0.602635
vn 0.000000 -0.717907 -0.696139
vn -0.000000 -0.717907 -0.696139
vn 0.000000 -0.626930 -0.779075
vn -0.000000 -0.626930 -0.779075
vn 0.000000 -0.526433 -0.850217
vn -0.000000 -0.526433 -0.850217
vn -0.000000 -0.417964 -0.908464
vn 0.000000 -0.417964 -0.908464
vn -0.000000 -0.303145 -0.952944
vn 0.000000 -0.303145 -0.952944
vn -0.000000 -0.183747 -0.982974
vn 0.000000 -0.183747 -0.982974
vn -0.000000 -0.061568 -0.998103
vn 0.000000 -0.061568 -0.998103
vn 1.000000 0.000000 0.000000
vn 1.000000 0.000000 -0.000000
vn 1.000000 0.000000 0.000000
vn 1.000000 0.000000 0.000000
vn 1.000000 0.000000 -0.000000
vn 1.000000 0.000000 0.000000
vn 1.000000 0.000000 0.000000
vn 1.000000 0.000000 0.000000
vn 1.000000 0.000000 0.000000
vn 1.000000 0.000000 -0.000000
vn 1.000000 0.000000 0.000000
vn 1.000000 0.000000 0.000000
vn 1.000000 0.000000 -0.000000
vn 1.000000 0.000000 0.000000
vn 1.000000 0.000000 0.000000
vn 1.000000 0.000000 0.000000
vn 1.000000 0.000000 0.000000
vn 1.000000 0.000000 -0.000000
vn 1.000000 0.000000 0.000000
vn 1.000000 0.000000 0.000000
vn 1.000000 0.000000 0.000000
vn 1.000000 0.000000 -0.000000
vn 1.000000 0.000000 0.000000
vn 1.000000 0.000000 -0.000000
vn 1.000000 0.000000 0.000000
vn 1.000000 0.000000 0.000000
vn 1.000000 0.000000 -0.000000
vn 1.000000 0.000000 0.000000
vn 1.000000 0.000000 0.000000
vn 1.000000 0.000000 0.000000
vn 1.000000 0.000000 -0.000000
vn 1.000000 0.000000 0.000000
vn 1.000000 0.000000 0.000000
vn 1.000000 0.000000 -0.000000
vn 1.000000 0.000000 -0.000000
vn 1.000000 0.000000 0.000000
vn 1.000000 0.000000 0.000000
vn 1.000000 0.000000 0.000000
vn 1.000000 0.000000 0.000000
vn 1.000000 0.000000 0.000000
vn 1.000000 0.000000 0.000000
vn 1.000000 0.000000 0.000000
vn 1.000000 0.000000 0.000000
vn 1.000000 0.000000 -0.000000
vn 1.000000 0.000000 0.000000
vn 1.000000 0.000000 -0.000000
vn 1.000000 0.000000 0.000000
vn 1.000000 0.000000 0.000000
vn 1.000000 0.000000 -0.000000
vn 1.000000 0.000000 0.000000
vn 1.000000 0.000000 0.000000
vn 1.000000 0.000000 0.000000
vn 1.000000 0.000000 0.000000
vn 1.000000 0.000000 0.000000
vn 1.000000 0.000000 -0.000000
vn 1.000000 0.000000 0.000000
vn 1.000000 0.000000 -0.000000
vn 1.000000 0.000000 0.000000
vn 1.000000 0.000000 0.000000
vn 1.000000 0.000000 0.000000
vn 1.000000 0.000000 0.000000
vn 1.000000 0.000000 0.000000
vn 1.000000 0.000000 0.000000
vn 1.000000 0.000000 -0.000000
vn 1.000000 0.000000 0.000000
vn 1.000000 0.000000 -0.000000
vn 1.000000 0.000000 0.000000
vn 1.000000 0.000000 -0.000000
vn 1.000000 0.000000 -0.000000
vn 1.000000 0.000000 0.000000
vn 1.000000 0.000000 0.000000
vn 1.000000 0.000000 0.000000
vn 1.000000 0.000000 0.000000
vn 1.000000 0.000000 0.000000
vn 1.000000 0.000000 -0.000000
vn 1.000000 0.000000 0.000000
vn 1.000000 0.000000 0.000000
vn 1.000000 0.000000 -0.000000
vn 1.000000 0.000000 0.000000
vn 1.000000 0.000000 0.000000
vn 1.000000 0.000000 0.000000
vn 1.000000 0.000000 0.000000
vn 1.000000 0.000000 -0.000000
vn 1.000000 0.000000 0.000000
vn -1.000000 0.000000 0.000000
vn -1.000000 -0.000000 0.000000
vn -1.000000 0.000000 -0.000000
vn -1.000000 0.000000 -0.000000
vn -1.000000 0.000000 0.000000
vn -1.000000 0.000000 -0.000000
vn -1.000000 0.000000 0.000000
vn -1.000000 0.000000 0.000000
vn -1.000000 0.000000 -0.000000
vn -1.000000 -0.000000 0.000000
vn -1.000000 0.000000 -0.000000
vn -1.000000 0.000000 -0.000000
vn -1.000000 -0.000000 0.000000
vn -1.000000 0.000000 -0.000000
vn -1.000000 0.000000 0.000000
vn -1.000000 0.000000 0.000000
vn -1.000000 0.000000 -0.000000
vn -1.000000 -0.000000 0.000000
vn -1.000000 0.000000 -0.000000
vn -1.000000 0.000000 -0.000000
vn -1.000000 0.000000 0.000000
vn -1.000000 0.000000 0.000000
vn -1.000000 0.000000 -0.000000
vn -1.000000 0.000000 0.000000
vn -1.000000 -0.000000 0.000000
vn -1.000000 0.000000 0.000000
vn -1.000000 -0.000000 0.000000
vn -1.000000 0.000000 0.000000
vn -1.000000 0.000000 -0.000000
vn -1.000000 0.000000 0.000000
vn -1.000000 -0.000000 0.000000
vn -1.000000 -0.000000 0.000000
vn -1.000000 0.000000 -0.000000
vn -1.000000 -0.000000 0.000000
vn -1.000000 -0.000000 0.000000
vn -1.000000 0.000000 0.000000
vn -1.000000 0.000000 0.000000
vn -1.000000 0.000000 0.000000
vn -1.000000 0.000000 -0.000000
vn -1.000000 0.000000 0.000000
vn -1.000000 0.000000 -0.000000
vn -1.000000 -0.000000 0.000000
vn -1.000000 -0.000000 0.000000
vn -1.000000 0.000000 0.000000
vn -1.000000 0.000000 0.000000
vn -1.000000 0.000000 0.000000
vn -1.000000 0.000000 -0.000000
vn -1.000000 -0.000000 0.000000
vn -1.000000 0.000000 0.000000
vn -1.000000 0.000000 -0.000000
vn -1.000000 0.000000 0.000000
vn -1.000000 0.000000 0.000000
vn -1.000000 0.000000 -0.000000
vn -1.000000 -0.000000 0.000000
vn -1.000000 0.000000 0.000000
vn -1.000000 0.000000 0.000000
vn -1.000000 0.000000 0.000000
vn -1.000000 0.000000 -0.000000
vn -1.000000 0.000000 -0.000000
vn -1.000000 -0.000000 0.000000
vn -1.000000 0.000000 0.000000
vn -1.000000 0.000000 -0.000000
vn -1.000000 0.000000 -0.000000
vn -1.000000 0.000000 0.000000
vn -1.000000 0.000000 -0.000000
vn -1.000000 0.000000 0.000000
vn -1.000000 0.000000 -0.000000
vn -1.000000 -0.000000 0.000000
vn -1.000000 0.000000 0.000000
vn -1.000000 -0.000000 0.000000
vn -1.000000 0.000000 -0.000000
vn -1.000000 0.000000 -0.000000
vn -1.000000 0.000000 0.000000
vn -1.000000 0.000000 -0.000000
vn -1.000000 0.000000 -0.000000
vn -1.000000 0.000000 0.000000
vn -1.000000 0.000000 -0.000000
vn -1.000000 0.000000 0.000000
vn -1.000000 0.000000 0.000000
vn -1.000000 0.000000 -0.000000
vn -1.000000 0.000000 -0.000000
vn -1.000000 0.000000 -0.000000
vn -1.000000 0.000000 0.000000
vn -1.000000 -0.000000 0.000000
vn 0.000000 0.371656 -0.928371
vn 0.000000 0.540644 -0.841251
vn 0.000000 0.540644 -0.841251
vn 0.000000 0.690072 -0.723741
vn 0.000000 0.690072 -0.723741
vn 0.000000 -0.095058 0.995472
vn 0.000000 -0.095058 0.995472
vn 0.000000 0.814579 -0.580053
vn 0.000000 0.814579 -0.580053
vn 0.000000 -0.281730 0.959494
vn 0.000000 -0.281730 0.959494
vn 0.000000 0.909633 -0.415414
vn 0.000000 0.909633 -0.415414
vn 0.000000 -0.458234 0.888831
vn 0.000000 -0.458234 0.888831
vn 0.000000 0.971812 -0.235756
vn 0.000000 0.971812 -0.235756
vn 0.000000 -0.618159 0.786053
vn 0.000000 -0.618159 0.786053
vn 0.000000 0.998867 -0.047595
vn 0.000000 0.998867 -0.047595
vn 0.000000 -0.755750 0.654860
vn 0.000000 -0.755750 0.654860
vn 0.000000 0.989819 0.142331
vn 0.000000 0.989819 0.142331
vn 0.000000 -0.866023 0.500003
vn 0.000000 -0.866023 0.500003
vn 0.000000 0.945000 0.327071
vn 0.000000 0.945000 0.327071
vn 0.000000 -0.945000 0.327071
vn 0.000000 -0.945000 0.327071
vn 0.000000 0.866023 0.500003
vn 0.000000 0.866023 0.500003
vn 0.000000 -0.989823 0.142305
vn 0.000000 -0.989823 0.142305
vn 0.000000 0.755750 0.654860
vn 0.000000 0.755750 0.654860
vn -0.000000 -0.998868 -0.047568
vn 0.000000 -0.998868 -0.047568
vn 0.000000 0.618172 0.786043
vn 0.000000 0.618172 0.786043
vn -0.000000 -0.971812 -0.235756
vn 0.000000 -0.971812 -0.235756
vn 0.000000 0.458223 0.888837
vn 0.000000 0.458223 0.888837
vn -0.000000 -0.909622 -0.415436
vn 0.000000 -0.909622 -0.415436
vn 0.000000 0.281737 0.959492
vn 0.000000 0.281737 0.959492
vn 0.000000 0.095055 0.995472
vn -0.000000 -0.814579 -0.580053
vn 0.000000 0.095055 0.995472
vn 0.000000 -0.814579 -0.580053
vn -0.000000 -0.690085 -0.723728
vn 0.000000 -0.690085 -0.723728
vn -0.000000 -0.540644 -0.841251
vn 0.000000 -0.540644 -0.841251
vn -0.000000 -0.371656 -0.928371
vn 0.000000 -0.371656 -0.928371
vn -0.000000 -0.189258 -0.981927
vn 0.000000 -0.189258 -0.981927
vn -0.000000 -0.000000 -1.000000
vn 0.000000 0.000000 -1.000000
vn 0.000000 0.189258 -0.981927
vn 0.000000 0.189258 -0.981927
vn 0.000000 0.371656 -0.928371
f 1//1 2//1 3//1
f 1//2 3//2 4//2
f 5//3 1//3 4//3
f 5//4 4//4 6//4
f 7//5 5//5 6//5
f 7//6 6//6 8//6
f 9//7 7//7 8//7
f 9//8 8//8 10//8
f 11//9 9//9 10//9
f 11//10 10//10 12//10
f 13//11 11//11 12//11
f 13//12 12//12 14//12
f 15//13 13//13 14//13
f 15//14 14//14 16//14
f 17//15 15//15 16//15
f 17//16 16//16 18//16
f 19//17 17//17 18//17
f 19//18 18//18 20//18
f 21//19 19//19 20//19
f 21//20 20//20 22//20
f 23//21 21//21 22//21
f 23//22 22//22 24//22
f 25//23 23//23 24//23
f 25//24 24//24 26//24
f 27//25 25//25 26//25
f 27//26 26//26 28//26
f 29//27 27//27 28//27
f 29//28 28//28 30//28
f 31//29 30//29 32//29
f 31//30 29//30 30//30
f 33//31 32//31 34//31
f 33//32 31//32 32//32
f 35//33 34//33 36//33
f 35//34 33//34 34//34
f 37//35 36//35 38//35
f 37//36 35//36 36//36
f 39//37 38//37 40//37
f 39//38 37//38 38//38
f 41//39 40//39 42//39
f 41//40 39//40 40//40
f 43//41 42//41 44//41
f 43//42 41//42 42//42
f 45//43 44//43 46//43
f 45//44 43//44 44//44
f 47//45 46//45 48//45
f 47//46 45//46 46//46
f 49//47 47//47 48//47
f 49//48 48//48 50//48
f 51//49 49//49 50//49
f 51//50 50//50 52//50
f 53//51 51//51 52//51
f 53//52 52//52 54//52
f 55//53 53//53 54//53
f 55//54 54//54 56//54
f 57//55 55//55 56//55
f 57//56 56//56 58//56
f 59//57 57//57 58//57
f 59//58 58//58 60//58
f 61//59 59//59 60//59
f 61//60 60//60 62//60
f 63//61 61//61 62//61
f 63//62 62//62 64//62
f 65//63 63//63 64//63
f 65//64 64//64 66//64
f 67//65 65//65 66//65
f 67//66 66//66 68//66
f 69//67 67//67 68//67
f 69//68 68//68 70//68
f 71//69 69//69 70//69
f 71//70 70//70 72//70
f 73//71 71//71 72//71
f 73//72 72//72 74//72
f 75//73 73//73 74//73
f 75//74 74//74 76//74
f 77//75 75//75 76//75
f 77//76 76//76 78//76
f 79//77 77//77 78//77
f 79//78 78//78 80//78
f 81//79 79//79 80//79
f 81//80 80//80 82//80
f 83//81 81//81 82//81
f 83//82 82//82 84//82
f 85//83 83//83 84//83
f 85//84 84//84 86//84
f 87//85 85//85 86//85
f 87//86 86//86 88//86
f 89//87 87//87 88//87
f 89//88 88//88 90//88
f 91//89 89//89 90//89
f 91//90 90//90 92//90
f 93//91 91//91 92//91
f 93//92 92//92 94//92
f 95//93 93//93 94//93
f 95//94 94//94 96//94
f 97//95 96//95 98//95
f 97//96 95//96 96//96
f 99//97 98//97 100//97
f 99//98 97//98 98//98
f 101//99 100//99 102//99
f 101//100 99//100 100//100
f 2//101 102//101 3//101
f 2//102 101//102 102//102
f 1//103 103//103 2//103
f 104//104 105//104 71//104
f 1//105 106//105 103//105
f 107//106 55//106 57//106
f 23//107 25//107 108//107
f 107//108 57//108 59//108
f 107//109 59//109 109//109
f 5//110 106//110 1//110
f 5//111 110//111 106//111
f 111//112 104//112 73//112
f 111//113 73//113 75//113
f 111//114 75//114 77//114
f 21//115 23//115 108//115
f 21//116 108//116 112//116
f 7//117 110//117 5//117
f 113//118 55//118 107//118
f 113//119 53//119 55//119
f 19//120 21//120 112//120
f 19//121 112//121 114//121
f 35//122 37//122 115//122
f 9//123 110//123 7//123
f 116//124 111//124 77//124
f 9//125 117//125 110//125
f 95//126 118//126 93//126
f 95//127 119//127 118//127
f 116//128 77//128 79//128
f 17//129 19//129 114//129
f 11//130 117//130 9//130
f 11//131 120//131 117//131
f 121//132 53//132 113//132
f 15//133 17//133 114//133
f 121//134 49//134 51//134
f 15//135 114//135 120//135
f 121//136 51//136 53//136
f 13//137 15//137 120//137
f 13//138 120//138 11//138
f 122//139 79//139 81//139
f 122//140 81//140 83//140
f 122//141 116//141 79//141
f 33//142 115//142 123//142
f 33//143 35//143 115//143
f 124//144 45//144 47//144
f 124//145 47//145 49//145
f 124//146 49//146 121//146
f 125//147 83//147 85//147
f 97//148 119//148 95//148
f 125//149 122//149 83//149
f 126//150 43//150 45//150
f 126//151 45//151 124//151
f 127//152 125//152 85//152
f 127//153 85//153 87//153
f 127//154 87//154 89//154
f 31//155 33//155 123//155
f 128//156 41//156 43//156
f 128//157 43//157 126//157
f 31//158 123//158 129//158
f 99//159 119//159 97//159
f 130//160 127//160 89//160
f 131//161 65//161 67//161
f 99//162 132//162 119//162
f 133//163 65//163 131//163
f 29//164 31//164 129//164
f 39//165 41//165 128//165
f 101//166 132//166 99//166
f 133//167 61//167 63//167
f 134//168 39//168 128//168
f 133//169 63//169 65//169
f 105//170 131//170 67//170
f 91//171 130//171 89//171
f 101//172 103//172 132//172
f 105//173 67//173 69//173
f 105//174 69//174 71//174
f 27//175 129//175 135//175
f 27//176 29//176 129//176
f 2//177 103//177 101//177
f 109//178 61//178 133//178
f 109//179 59//179 61//179
f 25//180 27//180 135//180
f 37//181 134//181 115//181
f 104//182 71//182 73//182
f 37//183 39//183 134//183
f 25//184 135//184 108//184
f 93//185 130//185 91//185
f 93//186 118//186 130//186
f 136//187 4//187 3//187
f 137//188 138//188 72//188
f 139//189 4//189 136//189
f 56//190 140//190 58//190
f 26//191 24//191 141//191
f 58//192 140//192 60//192
f 60//193 140//193 142//193
f 139//194 6//194 4//194
f 143//195 6//195 139//195
f 138//196 144//196 74//196
f 74//197 144//197 76//197
f 76//198 144//198 78//198
f 24//199 22//199 141//199
f 141//200 22//200 145//200
f 143//201 8//201 6//201
f 56//202 146//202 140//202
f 54//203 146//203 56//203
f 22//204 20//204 145//204
f 145//205 20//205 147//205
f 38//206 36//206 148//206
f 143//207 10//207 8//207
f 144//208 149//208 78//208
f 150//209 10//209 143//209
f 151//210 96//210 94//210
f 152//211 96//211 151//211
f 78//212 149//212 80//212
f 20//213 18//213 147//213
f 150//214 12//214 10//214
f 153//215 12//215 150//215
f 54//216 154//216 146//216
f 18//217 16//217 147//217
f 50//218 154//218 52//218
f 147//219 16//219 153//219
f 52//220 154//220 54//220
f 16//221 14//221 153//221
f 153//222 14//222 12//222
f 80//223 155//223 82//223
f 82//224 155//224 84//224
f 149//225 155//225 80//225
f 148//226 34//226 156//226
f 36//227 34//227 148//227
f 46//228 157//228 48//228
f 48//229 157//229 50//229
f 50//230 157//230 154//230
f 84//231 158//231 86//231
f 152//232 98//232 96//232
f 155//233 158//233 84//233
f 44//234 159//234 46//234
f 46//235 159//235 157//235
f 158//236 160//236 86//236
f 86//237 160//237 88//237
f 88//238 160//238 90//238
f 34//239 32//239 156//239
f 42//240 161//240 44//240
f 44//241 161//241 159//241
f 156//242 32//242 162//242
f 152//243 100//243 98//243
f 160//244 163//244 90//244
f 66//245 164//245 68//245
f 165//246 100//246 152//246
f 66//247 166//247 164//247
f 32//248 30//248 162//248
f 42//249 40//249 161//249
f 165//250 102//250 100//250
f 62//251 166//251 64//251
f 40//252 167//252 161//252
f 64//253 166//253 66//253
f 164//254 137//254 68//254
f 163//255 92//255 90//255
f 136//256 102//256 165//256
f 68//257 137//257 70//257
f 70//258 137//258 72//258
f 162//259 28//259 168//259
f 30//260 28//260 162//260
f 136//261 3//261 102//261
f 62//262 142//262 166//262
f 60//263 142//263 62//263
f 28//264 26//264 168//264
f 167//265 38//265 148//265
f 72//266 138//266 74//266
f 40//267 38//267 167//267
f 168//268 26//268 141//268
f 163//269 94//269 92//269
f 151//270 94//270 163//270
f 140//271 109//271 142//271
f 109//272 133//272 142//272
f 142//273 133//273 166//273
f 133//274 131//274 166//274
f 166//275 131//275 164//275
f 136//276 106//276 139//276
f 103//277 106//277 136//277
f 164//278 105//278 137//278
f 131//279 105//279 164//279
f 139//280 110//280 143//280
f 106//281 110//281 139//281
f 137//282 104//282 138//282
f 105//283 104//283 137//283
f 143//284 117//284 150//284
f 110//285 117//285 143//285
f 138//286 111//286 144//286
f 104//287 111//287 138//287
f 150//288 120//288 153//288
f 117//289 120//289 150//289
f 144//290 116//290 149//290
f 111//291 116//291 144//291
f 153//292 114//292 147//292
f 120//293 114//293 153//293
f 149//294 122//294 155//294
f 116//295 122//295 149//295
f 147//296 112//296 145//296
f 114//297 112//297 147//297
f 155//298 125//298 158//298
f 122//299 125//299 155//299
f 145//300 108//300 141//300
f 112//301 108//301 145//301
f 158//302 127//302 160//302
f 125//303 127//303 158//303
f 108//304 135//304 141//304
f 141//305 135//305 168//305
f 160//306 130//306 163//306
f 127//307 130//307 160//307
f 135//308 129//308 168//308
f 168//309 129//309 162//309
f 163//310 118//310 151//310
f 130//311 118//311 163//311
f 129//312 123//312 162//312
f 162//313 123//313 156//313
f 151//314 119//314 152//314
f 118//315 119//315 151//315
f 123//316 115//316 156//316
f 156//317 115//317 148//317
f 152//318 132//318 165//318
f 119//319 132//319 152//319
f 132//320 103//320 165//320
f 115//321 134//321 148//321
f 165//322 103//322 136//322
f 148//323 134//323 167//323
f 134//324 128//324 167//324
f 167//325 128//325 161//325
f 128//326 126//326 161//326
f 161//327 126//327 159//327
f 126//328 124//328 159//328
f 159//329 124//329 157//329
f 124//330 121//330 157//330
f 157//331 121//331 154//331
f 121//332 113//332 154//332
f 154//333 113//333 146//333
f 113//334 107//334 146//334
f 146//335 107//335 140//335
f 107//336 109//336 140//336
