# Created by FreeCAD <http://www.freecadweb.org>
v 134.800003 70.880814 50.985546
v 134.800003 71.247749 50.695782
v 124.400002 71.247749 50.695782
v 134.800003 66.082253 46.023872
v 134.800003 65.830673 46.417965
v 124.400002 65.830673 46.417965
v 124.400002 66.082253 46.023872
v 134.800003 70.478539 51.223816
v 124.400002 70.880814 50.985546
v 124.400002 70.478539 51.223816
v 134.800003 68.900002 44.599998
v 124.400002 68.900002 44.599998
v 124.400002 69.366501 44.631229
v 134.800003 66.384117 45.666828
v 124.400002 66.384117 45.666828
v 134.800003 70.048088 51.406342
v 124.400002 70.048088 51.406342
v 134.800003 69.366501 44.631229
v 134.800003 66.730873 45.353203
v 124.400002 66.730873 45.353203
v 134.800003 69.597153 51.529865
v 124.400002 69.597153 51.529865
v 134.800003 69.824684 44.724358
v 124.400002 69.824684 44.724358
v 134.800003 67.116341 45.088596
v 124.400002 67.116341 45.088596
v 134.800003 69.133774 51.592186
v 124.400002 69.133774 51.592186
v 134.800003 70.266365 44.877724
v 124.400002 70.266365 44.877724
v 134.800003 67.533638 44.877724
v 124.400002 67.533638 44.877724
v 134.800003 68.666229 51.592186
v 124.400002 68.666229 51.592186
v 134.800003 70.683655 45.088596
v 124.400002 70.683655 45.088596
v 134.800003 67.975319 44.724358
v 124.400002 67.975319 44.724358
v 134.800003 68.202850 51.529865
v 124.400002 68.202850 51.529865
v 134.800003 71.069122 45.353203
v 124.400002 71.069122 45.353203
v 134.800003 68.433495 44.631229
v 124.400002 68.433495 44.631229
v 134.800003 67.751915 51.406342
v 124.400002 67.751915 51.406342
v 134.800003 71.415886 45.666828
v 124.400002 71.415886 45.666828
v 134.800003 67.321465 51.223816
v 124.400002 67.321465 51.223816
v 134.800003 71.717743 46.023872
v 124.400002 71.717743 46.023872
v 134.800003 66.919182 50.985546
v 124.400002 66.919182 50.985546
v 134.800003 71.969322 46.417965
v 124.400002 71.969322 46.417965
v 134.800003 66.552254 50.695782
v 124.400002 66.552254 50.695782
v 134.800003 72.166130 46.842072
v 124.400002 72.166130 46.842072
v 134.800003 66.227219 50.359699
v 124.400002 66.227219 50.359699
v 134.800003 72.304657 47.288628
v 124.400002 72.304657 47.288628
v 134.800003 65.949875 49.983288
v 124.400002 65.949875 49.983288
v 134.800003 72.382423 47.749664
v 124.400002 72.382423 47.749664
v 134.800003 65.725182 49.573273
v 124.400002 65.725182 49.573273
v 134.800003 72.398048 48.216953
v 124.400002 72.398048 48.216953
v 134.800003 65.557144 49.136963
v 124.400002 65.557144 49.136963
v 134.800003 72.351250 48.682152
v 124.400002 72.351250 48.682152
v 134.800003 65.448753 48.682152
v 124.400002 65.448753 48.682152
v 134.800003 72.242859 49.136963
v 124.400002 72.242859 49.136963
v 134.800003 65.401955 48.216953
v 124.400002 65.401955 48.216953
v 134.800003 72.074821 49.573273
v 124.400002 72.074821 49.573273
v 134.800003 65.417580 47.749664
v 124.400002 65.417580 47.749664
v 134.800003 71.850121 49.983288
v 124.400002 71.850121 49.983288
v 134.800003 65.495346 47.288628
v 124.400002 65.495346 47.288628
v 134.800003 71.572784 50.359699
v 124.400002 71.572784 50.359699
v 134.800003 65.633865 46.842072
v 124.400002 65.633865 46.842072
v 134.800003 68.308464 46.721561
v 134.800003 68.043098 46.868855
v 134.800003 69.491531 46.721561
v 134.800003 69.756905 46.868855
v 134.800003 68.748245 49.592304
v 134.800003 68.450958 49.531208
v 134.800003 70.172966 47.306553
v 134.800003 69.987190 47.066551
v 134.800003 67.401924 48.175972
v 134.800003 67.447884 48.475979
v 134.800003 70.246704 48.760590
v 134.800003 69.051750 49.592304
v 134.800003 67.417297 47.872860
v 134.800003 69.349045 49.531208
v 134.800003 67.493370 47.579041
v 134.800003 69.627953 49.411518
v 134.800003 67.627037 47.306553
v 134.800003 70.352119 48.475979
v 134.800003 69.877060 49.238136
v 134.800003 68.598053 46.630707
v 134.800003 67.812813 47.066551
v 134.800003 70.398071 48.175972
v 134.800003 68.900002 46.599998
v 134.800003 67.922943 49.238136
v 134.800003 67.713837 49.018158
v 134.800003 70.086166 49.018158
v 134.800003 68.172050 49.411518
v 134.800003 70.382706 47.872860
v 134.800003 69.201950 46.630707
v 134.800003 67.553291 48.760590
v 134.800003 70.306625 47.579041
v 124.400002 68.308464 46.721561
v 124.400002 68.043098 46.868855
v 124.400002 69.491531 46.721561
v 124.400002 69.756905 46.868855
v 124.400002 68.748245 49.592304
v 124.400002 68.450958 49.531208
v 124.400002 70.172966 47.306553
v 124.400002 69.987190 47.066551
v 124.400002 67.447884 48.475979
v 124.400002 67.401924 48.175972
v 124.400002 70.246704 48.760590
v 124.400002 69.051750 49.592304
v 124.400002 67.417297 47.872860
v 124.400002 69.349045 49.531208
v 124.400002 67.493370 47.579041
v 124.400002 69.627953 49.411518
v 124.400002 67.627037 47.306553
v 124.400002 70.352119 48.475979
v 124.400002 69.877060 49.238136
v 124.400002 68.598053 46.630707
v 124.400002 67.812813 47.066551
v 124.400002 70.398071 48.175972
v 124.400002 68.900002 46.599998
v 124.400002 67.922943 49.238136
v 124.400002 67.713837 49.018158
v 124.400002 70.086166 49.018158
v 124.400002 68.172050 49.411518
v 124.400002 70.382706 47.872860
v 124.400002 69.201950 46.630707
v 124.400002 67.553291 48.760590
v 124.400002 70.306625 47.579041
vn 0.000000 0.619747 0.784801
vn 0.000000 -0.842892 -0.538082
vn -0.000000 -0.842892 -0.538082
vn 0.000000 0.509620 0.860400
vn 0.000000 0.509620 0.860400
vn 0.000000 0.066798 -0.997767
vn 0.000000 -0.763650 -0.645631
vn -0.000000 -0.763650 -0.645631
vn 0.000000 0.390387 0.920651
vn 0.000000 0.066798 -0.997767
vn 0.000000 0.390387 0.920651
vn 0.000000 -0.670788 -0.741649
vn -0.000000 -0.670788 -0.741649
vn 0.000000 0.264195 0.964469
vn 0.000000 0.199183 -0.979962
vn 0.000000 0.264195 0.964469
vn 0.000000 0.199183 -0.979962
vn 0.000000 -0.565944 -0.824444
vn -0.000000 -0.565944 -0.824444
vn 0.000000 0.133292 0.991077
vn 0.000000 0.133292 0.991077
vn 0.000000 0.328021 -0.944671
vn 0.000000 0.328021 -0.944671
vn 0.000000 -0.451015 -0.892516
vn -0.000000 -0.451015 -0.892516
vn 0.000000 0.000000 1.000000
vn 0.000000 -0.000000 1.000000
vn 0.000000 0.451021 -0.892513
vn 0.000000 0.451021 -0.892513
vn 0.000000 -0.328021 -0.944671
vn -0.000000 -0.328021 -0.944671
vn 0.000000 -0.133292 0.991077
vn 0.000000 -0.133292 0.991077
vn 0.000000 0.565944 -0.824444
vn 0.000000 0.565944 -0.824444
vn 0.000000 -0.199186 -0.979962
vn -0.000000 -0.199186 -0.979962
vn 0.000000 -0.264195 0.964469
vn 0.000000 -0.264195 0.964469
vn 0.000000 -0.066797 -0.997767
vn -0.000000 -0.066797 -0.997767
vn 0.000000 0.670780 -0.741656
vn 0.000000 0.670780 -0.741656
vn 0.000000 -0.390387 0.920651
vn 0.000000 -0.390387 0.920651
vn 0.000000 0.763658 -0.645621
vn 0.000000 0.763658 -0.645621
vn 0.000000 -0.509613 0.860404
vn 0.000000 -0.509613 0.860404
vn 0.000000 0.842892 -0.538082
vn 0.000000 0.842892 -0.538082
vn 0.000000 -0.619755 0.784795
vn 0.000000 -0.619755 0.784795
vn 0.000000 0.907090 -0.420938
vn 0.000000 0.907090 -0.420938
vn 0.000000 -0.718822 0.695194
vn 0.000000 -0.718822 0.695194
vn 0.000000 0.955100 -0.296283
vn 0.000000 0.955100 -0.296283
vn 0.000000 -0.805068 0.593182
vn 0.000000 -0.805068 0.593182
vn 0.000000 0.986071 -0.166328
vn 0.000000 0.986071 -0.166328
vn 0.000000 -0.876951 0.480580
vn 0.000000 -0.876951 0.480580
vn 0.000000 0.999441 -0.033419
vn 0.000000 0.999441 -0.033419
vn 0.000000 -0.933184 0.359400
vn 0.000000 -0.933184 0.359400
vn 0.000000 0.994978 0.100094
vn 0.000000 0.994978 0.100094
vn 0.000000 -0.972757 0.231828
vn 0.000000 -0.972757 0.231828
vn 0.000000 0.972757 0.231828
vn 0.000000 0.972757 0.231828
vn 0.000000 -0.994978 0.100094
vn 0.000000 -0.994978 0.100094
vn 0.000000 0.933184 0.359400
vn 0.000000 0.933184 0.359400
vn 0.000000 -0.999441 -0.033419
vn -0.000000 -0.999441 -0.033419
vn 0.000000 0.876944 0.480592
vn 0.000000 0.876944 0.480592
vn 0.000000 -0.986071 -0.166328
vn -0.000000 -0.986071 -0.166328
vn 0.000000 0.805076 0.593172
vn 0.000000 0.805076 0.593172
vn 0.000000 -0.955105 -0.296268
vn -0.000000 -0.955105 -0.296268
vn 0.000000 0.718822 0.695194
vn 0.000000 0.718822 0.695194
vn 0.000000 -0.907090 -0.420938
vn -0.000000 -0.907090 -0.420938
vn 0.000000 0.619747 0.784801
vn 1.000000 0.000000 0.000000
vn 1.000000 0.000000 0.000000
vn 1.000000 0.000000 0.000000
vn 1.000000 0.000000 0.000000
vn 1.000000 0.000000 -0.000000
vn 1.000000 0.000000 0.000000
vn 1.000000 0.000000 -0.000000
vn 1.000000 0.000000 0.000000
vn 1.000000 0.000000 0.000000
vn 1.000000 0.000000 -0.000000
vn 1.000000 0.000000 0.000000
vn 1.000000 0.000000 -0.000000
vn 1.000000 0.000000 0.000000
vn 1.000000 0.000000 0.000000
vn 1.000000 0.000000 0.000000
vn 1.000000 0.000000 0.000000
vn 1.000000 0.000000 -0.000000
vn 1.000000 0.000000 0.000000
vn 1.000000 0.000000 0.000000
vn 1.000000 0.000000 0.000000
vn 1.000000 0.000000 -0.000000
vn 1.000000 0.000000 -0.000000
vn 1.000000 0.000000 0.000000
vn 1.000000 0.000000 0.000000
vn 1.000000 0.000000 0.000000
vn 1.000000 0.000000 0.000000
vn 1.000000 0.000000 0.000000
vn 1.000000 0.000000 0.000000
vn 1.000000 0.000000 -0.000000
vn 1.000000 0.000000 0.000000
vn 1.000000 0.000000 0.000000
vn 1.000000 0.000000 0.000000
vn 1.000000 0.000000 0.000000
vn 1.000000 0.000000 0.000000
vn 1.000000 0.000000 -0.000000
vn 1.000000 0.000000 0.000000
vn 1.000000 0.000000 -0.000000
vn 1.000000 0.000000 0.000000
vn 1.000000 0.000000 0.000000
vn 1.000000 0.000000 0.000000
vn 1.000000 0.000000 0.000000
vn 1.000000 0.000000 -0.000000
vn 1.000000 0.000000 0.000000
vn 1.000000 0.000000 0.000000
vn 1.000000 0.000000 0.000000
vn 1.000000 0.000000 0.000000
vn 1.000000 0.000000 0.000000
vn 1.000000 0.000000 -0.000000
vn 1.000000 0.000000 -0.000000
vn 1.000000 0.000000 0.000000
vn 1.000000 0.000000 0.000000
vn 1.000000 0.000000 -0.000000
vn 1.000000 0.000000 -0.000000
vn 1.000000 0.000000 0.000000
vn 1.000000 0.000000 0.000000
vn 1.000000 0.000000 0.000000
vn 1.000000 0.000000 0.000000
vn 1.000000 0.000000 0.000000
vn 1.000000 0.000000 0.000000
vn 1.000000 0.000000 -0.000000
vn 1.000000 0.000000 -0.000000
vn 1.000000 0.000000 0.000000
vn 1.000000 0.000000 0.000000
vn 1.000000 0.000000 0.000000
vn 1.000000 0.000000 0.000000
vn 1.000000 0.000000 0.000000
vn 1.000000 0.000000 0.000000
vn 1.000000 0.000000 0.000000
vn 1.000000 0.000000 0.000000
vn 1.000000 0.000000 -0.000000
vn 1.000000 0.000000 0.000000
vn 1.000000 0.000000 0.000000
vn 1.000000 0.000000 0.000000
vn 1.000000 0.000000 -0.000000
vn 1.000000 0.000000 0.000000
vn 1.000000 0.000000 -0.000000
vn 1.000000 0.000000 0.000000
vn 1.000000 0.000000 -0.000000
vn -1.000000 -0.000000 0.000000
vn -1.000000 0.000000 0.000000
vn -1.000000 0.000000 -0.000000
vn -1.000000 0.000000 0.000000
vn -1.000000 -0.000000 0.000000
vn -1.000000 0.000000 -0.000000
vn -1.000000 -0.000000 0.000000
vn -1.000000 0.000000 -0.000000
vn -1.000000 0.000000 0.000000
vn -1.000000 -0.000000 0.000000
vn -1.000000 0.000000 -0.000000
vn -1.000000 -0.000000 0.000000
vn -1.000000 0.000000 -0.000000
vn -1.000000 0.000000 0.000000
vn -1.000000 0.000000 0.000000
vn -1.000000 0.000000 -0.000000
vn -1.000000 0.000000 0.000000
vn -1.000000 -0.000000 0.000000
vn -1.000000 0.000000 -0.000000
vn -1.000000 0.000000 0.000000
vn -1.000000 0.000000 0.000000
vn -1.000000 0.000000 0.000000
vn -1.000000 -0.000000 0.000000
vn -1.000000 -0.000000 0.000000
vn -1.000000 0.000000 -0.000000
vn -1.000000 0.000000 0.000000
vn -1.000000 0.000000 0.000000
vn -1.000000 -0.000000 0.000000
vn -1.000000 0.000000 0.000000
vn -1.000000 0.000000 -0.000000
vn -1.000000 0.000000 0.000000
vn -1.000000 0.000000 0.000000
vn -1.000000 -0.000000 0.000000
vn -1.000000 0.000000 -0.000000
vn -1.000000 0.000000 0.000000
vn -1.000000 -0.000000 0.000000
vn -1.000000 0.000000 0.000000
vn -1.000000 0.000000 -0.000000
vn -1.000000 0.000000 0.000000
vn -1.000000 0.000000 0.000000
vn -1.000000 0.000000 -0.000000
vn -1.000000 0.000000 0.000000
vn -1.000000 -0.000000 0.000000
vn -1.000000 0.000000 -0.000000
vn -1.000000 0.000000 -0.000000
vn -1.000000 0.000000 -0.000000
vn -1.000000 0.000000 -0.000000
vn -1.000000 -0.000000 0.000000
vn -1.000000 0.000000 -0.000000
vn -1.000000 0.000000 0.000000
vn -1.000000 0.000000 -0.000000
vn -1.000000 0.000000 0.000000
vn -1.000000 0.000000 0.000000
vn -1.000000 -0.000000 0.000000
vn -1.000000 0.000000 0.000000
vn -1.000000 0.000000 -0.000000
vn -1.000000 0.000000 -0.000000
vn -1.000000 0.000000 -0.000000
vn -1.000000 0.000000 0.000000
vn -1.000000 -0.000000 0.000000
vn -1.000000 -0.000000 0.000000
vn -1.000000 0.000000 -0.000000
vn -1.000000 0.000000 -0.000000
vn -1.000000 0.000000 -0.000000
vn -1.000000 0.000000 0.000000
vn -1.000000 0.000000 -0.000000
vn -1.000000 0.000000 0.000000
vn -1.000000 0.000000 -0.000000
vn -1.000000 0.000000 0.000000
vn -1.000000 -0.000000 0.000000
vn -1.000000 0.000000 -0.000000
vn -1.000000 0.000000 -0.000000
vn -1.000000 0.000000 0.000000
vn -1.000000 -0.000000 0.000000
vn -1.000000 0.000000 -0.000000
vn -1.000000 -0.000000 0.000000
vn -1.000000 0.000000 -0.000000
vn -1.000000 0.000000 0.000000
vn 0.000000 0.724790 -0.688969
vn 0.000000 0.724790 -0.688969
vn 0.000000 -0.101179 0.994868
vn 0.000000 0.848642 -0.528968
vn 0.000000 0.848642 -0.528968
vn 0.000000 -0.101179 0.994868
vn 0.000000 0.937753 -0.347304
vn 0.000000 0.937753 -0.347304
vn 0.000000 -0.299357 0.954141
vn 0.000000 -0.299357 0.954141
vn 0.000000 0.988468 -0.151428
vn 0.000000 -0.485299 0.874348
vn 0.000000 0.988468 -0.151428
vn 0.000000 -0.485299 0.874348
vn 0.000000 0.998716 0.050653
vn 0.000000 0.998716 0.050653
vn 0.000000 -0.651378 0.758753
vn 0.000000 -0.651378 0.758753
vn 0.000000 0.968079 0.250645
vn 0.000000 0.968079 0.250645
vn 0.000000 -0.790775 0.612107
vn 0.000000 -0.790775 0.612107
vn 0.000000 0.897797 0.440409
vn 0.000000 -0.897807 0.440388
vn 0.000000 0.897797 0.440409
vn 0.000000 -0.897807 0.440388
vn 0.000000 0.790775 0.612107
vn 0.000000 -0.968073 0.250669
vn 0.000000 0.790775 0.612107
vn 0.000000 -0.968073 0.250669
vn 0.000000 0.651378 0.758753
vn 0.000000 0.651378 0.758753
vn 0.000000 -0.998718 0.050628
vn 0.000000 -0.998718 0.050628
vn 0.000000 0.485310 0.874342
vn 0.000000 0.485310 0.874342
vn -0.000000 -0.988472 -0.151404
vn 0.000000 -0.988472 -0.151404
vn 0.000000 0.299350 0.954143
vn 0.000000 0.299350 0.954143
vn 0.000000 0.101179 0.994868
vn -0.000000 -0.937745 -0.347326
vn 0.000000 -0.937745 -0.347326
vn 0.000000 0.101179 0.994868
vn -0.000000 -0.848653 -0.528950
vn 0.000000 -0.848653 -0.528950
vn -0.000000 -0.724790 -0.688969
vn 0.000000 -0.724790 -0.688969
vn -0.000000 -0.571264 -0.820767
vn 0.000000 -0.571264 -0.820767
vn -0.000000 -0.394359 -0.918956
vn 0.000000 -0.394359 -0.918956
vn -0.000000 -0.201300 -0.979530
vn 0.000000 -0.201300 -0.979530
vn -0.000000 -0.000000 -1.000000
vn 0.000000 0.000000 -1.000000
vn 0.000000 0.201305 -0.979529
vn 0.000000 0.201305 -0.979529
vn 0.000000 0.394359 -0.918956
vn 0.000000 0.394359 -0.918956
vn 0.000000 0.571264 -0.820767
vn 0.000000 0.571264 -0.820767
f 1//1 2//1 3//1
f 4//2 5//2 6//2
f 4//3 6//3 7//3
f 8//4 9//4 10//4
f 8//5 1//5 9//5
f 11//6 12//6 13//6
f 14//7 4//7 7//7
f 14//8 7//8 15//8
f 16//9 10//9 17//9
f 18//10 11//10 13//10
f 16//11 8//11 10//11
f 19//12 14//12 15//12
f 19//13 15//13 20//13
f 21//14 17//14 22//14
f 23//15 18//15 13//15
f 21//16 16//16 17//16
f 23//17 13//17 24//17
f 25//18 19//18 20//18
f 25//19 20//19 26//19
f 27//20 22//20 28//20
f 27//21 21//21 22//21
f 29//22 23//22 24//22
f 29//23 24//23 30//23
f 31//24 25//24 26//24
f 31//25 26//25 32//25
f 33//26 28//26 34//26
f 33//27 27//27 28//27
f 35//28 29//28 30//28
f 35//29 30//29 36//29
f 37//30 31//30 32//30
f 37//31 32//31 38//31
f 39//32 34//32 40//32
f 39//33 33//33 34//33
f 41//34 35//34 36//34
f 41//35 36//35 42//35
f 43//36 37//36 38//36
f 43//37 38//37 44//37
f 45//38 39//38 40//38
f 45//39 40//39 46//39
f 11//40 43//40 44//40
f 11//41 44//41 12//41
f 47//42 41//42 42//42
f 47//43 42//43 48//43
f 49//44 45//44 46//44
f 49//45 46//45 50//45
f 51//46 47//46 48//46
f 51//47 48//47 52//47
f 53//48 49//48 50//48
f 53//49 50//49 54//49
f 55//50 51//50 52//50
f 55//51 52//51 56//51
f 57//52 53//52 54//52
f 57//53 54//53 58//53
f 59//54 55//54 56//54
f 59//55 56//55 60//55
f 61//56 57//56 58//56
f 61//57 58//57 62//57
f 63//58 59//58 60//58
f 63//59 60//59 64//59
f 65//60 61//60 62//60
f 65//61 62//61 66//61
f 67//62 63//62 64//62
f 67//63 64//63 68//63
f 69//64 65//64 66//64
f 69//65 66//65 70//65
f 71//66 67//66 68//66
f 71//67 68//67 72//67
f 73//68 69//68 70//68
f 73//69 70//69 74//69
f 75//70 71//70 72//70
f 75//71 72//71 76//71
f 77//72 73//72 74//72
f 77//73 74//73 78//73
f 79//74 75//74 76//74
f 79//75 76//75 80//75
f 81//76 77//76 78//76
f 81//77 78//77 82//77
f 83//78 79//78 80//78
f 83//79 80//79 84//79
f 85//80 81//80 82//80
f 85//81 82//81 86//81
f 87//82 84//82 88//82
f 87//83 83//83 84//83
f 89//84 85//84 86//84
f 89//85 86//85 90//85
f 91//86 88//86 92//86
f 91//87 87//87 88//87
f 93//88 89//88 90//88
f 93//89 90//89 94//89
f 2//90 91//90 92//90
f 2//91 92//91 3//91
f 5//92 93//92 94//92
f 5//93 94//93 6//93
f 1//94 3//94 9//94
f 25//95 95//95 96//95
f 35//96 97//96 29//96
f 35//97 98//97 97//97
f 99//98 39//98 100//98
f 99//99 27//99 33//99
f 99//100 33//100 39//100
f 51//101 55//101 101//101
f 51//102 101//102 102//102
f 41//103 98//103 35//103
f 103//104 104//104 77//104
f 41//105 102//105 98//105
f 47//106 51//106 102//106
f 103//107 77//107 81//107
f 47//108 102//108 41//108
f 103//109 81//109 85//109
f 83//110 87//110 105//110
f 106//111 27//111 99//111
f 106//112 21//112 27//112
f 107//113 103//113 85//113
f 107//114 85//114 89//114
f 31//115 95//115 25//115
f 108//116 21//116 106//116
f 108//117 8//117 16//117
f 108//118 16//118 21//118
f 109//119 107//119 89//119
f 109//120 89//120 93//120
f 109//121 93//121 5//121
f 110//122 1//122 8//122
f 110//123 8//123 108//123
f 111//124 109//124 5//124
f 111//125 5//125 4//125
f 79//126 105//126 112//126
f 113//127 2//127 1//127
f 79//128 83//128 105//128
f 113//129 1//129 110//129
f 37//130 114//130 95//130
f 37//131 95//131 31//131
f 115//132 111//132 4//132
f 115//133 4//133 14//133
f 75//134 112//134 116//134
f 75//135 79//135 112//135
f 43//136 114//136 37//136
f 43//137 117//137 114//137
f 71//138 75//138 116//138
f 118//139 53//139 57//139
f 118//140 57//140 61//140
f 91//141 2//141 113//141
f 119//142 118//142 61//142
f 11//143 117//143 43//143
f 91//144 113//144 120//144
f 119//145 61//145 65//145
f 19//146 115//146 14//146
f 67//147 71//147 116//147
f 19//148 96//148 115//148
f 121//149 53//149 118//149
f 67//150 116//150 122//150
f 18//151 123//151 117//151
f 121//152 49//152 53//152
f 18//153 117//153 11//153
f 63//154 67//154 122//154
f 124//155 119//155 65//155
f 124//156 65//156 69//156
f 63//157 122//157 125//157
f 124//158 69//158 73//158
f 87//159 120//159 105//159
f 87//160 91//160 120//160
f 23//161 123//161 18//161
f 23//162 97//162 123//162
f 100//163 49//163 121//163
f 59//164 63//164 125//164
f 100//165 39//165 45//165
f 100//166 45//166 49//166
f 29//167 97//167 23//167
f 104//168 124//168 73//168
f 104//169 73//169 77//169
f 55//170 59//170 125//170
f 55//171 125//171 101//171
f 25//172 96//172 19//172
f 126//173 26//173 127//173
f 128//174 36//174 30//174
f 129//175 36//175 128//175
f 40//176 130//176 131//176
f 28//177 130//177 34//177
f 34//178 130//178 40//178
f 56//179 52//179 132//179
f 132//180 52//180 133//180
f 129//181 42//181 36//181
f 134//182 135//182 78//182
f 133//183 42//183 129//183
f 52//184 48//184 133//184
f 78//185 135//185 82//185
f 133//186 48//186 42//186
f 82//187 135//187 86//187
f 88//188 84//188 136//188
f 28//189 137//189 130//189
f 22//190 137//190 28//190
f 135//191 138//191 86//191
f 86//192 138//192 90//192
f 126//193 32//193 26//193
f 22//194 139//194 137//194
f 10//195 139//195 17//195
f 17//196 139//196 22//196
f 138//197 140//197 90//197
f 90//198 140//198 94//198
f 94//199 140//199 6//199
f 9//200 141//200 10//200
f 10//201 141//201 139//201
f 140//202 142//202 6//202
f 6//203 142//203 7//203
f 136//204 80//204 143//204
f 3//205 144//205 9//205
f 84//206 80//206 136//206
f 9//207 144//207 141//207
f 145//208 38//208 126//208
f 126//209 38//209 32//209
f 142//210 146//210 7//210
f 7//211 146//211 15//211
f 143//212 76//212 147//212
f 80//213 76//213 143//213
f 145//214 44//214 38//214
f 148//215 44//215 145//215
f 76//216 72//216 147//216
f 54//217 149//217 58//217
f 58//218 149//218 62//218
f 3//219 92//219 144//219
f 149//220 150//220 62//220
f 148//221 12//221 44//221
f 144//222 92//222 151//222
f 62//223 150//223 66//223
f 146//224 20//224 15//224
f 72//225 68//225 147//225
f 127//226 20//226 146//226
f 54//227 152//227 149//227
f 147//228 68//228 153//228
f 154//229 13//229 148//229
f 50//230 152//230 54//230
f 148//231 13//231 12//231
f 68//232 64//232 153//232
f 150//233 155//233 66//233
f 66//234 155//234 70//234
f 153//235 64//235 156//235
f 70//236 155//236 74//236
f 151//237 88//237 136//237
f 92//238 88//238 151//238
f 154//239 24//239 13//239
f 128//240 24//240 154//240
f 50//241 131//241 152//241
f 64//242 60//242 156//242
f 40//243 131//243 46//243
f 46//244 131//244 50//244
f 128//245 30//245 24//245
f 155//246 134//246 74//246
f 74//247 134//247 78//247
f 60//248 56//248 156//248
f 156//249 56//249 132//249
f 127//250 26//250 20//250
f 118//251 119//251 149//251
f 149//252 119//252 150//252
f 148//253 117//253 154//253
f 150//254 124//254 155//254
f 119//255 124//255 150//255
f 117//256 123//256 154//256
f 124//257 104//257 155//257
f 155//258 104//258 134//258
f 154//259 97//259 128//259
f 123//260 97//260 154//260
f 134//261 103//261 135//261
f 128//262 98//262 129//262
f 104//263 103//263 134//263
f 97//264 98//264 128//264
f 135//265 107//265 138//265
f 103//266 107//266 135//266
f 129//267 102//267 133//267
f 98//268 102//268 129//268
f 138//269 109//269 140//269
f 107//270 109//270 138//270
f 133//271 101//271 132//271
f 102//272 101//272 133//272
f 140//273 111//273 142//273
f 132//274 125//274 156//274
f 109//275 111//275 140//275
f 101//276 125//276 132//276
f 142//277 115//277 146//277
f 156//278 122//278 153//278
f 111//279 115//279 142//279
f 125//280 122//280 156//280
f 146//281 96//281 127//281
f 115//282 96//282 146//282
f 153//283 116//283 147//283
f 122//284 116//284 153//284
f 127//285 95//285 126//285
f 96//286 95//286 127//286
f 116//287 112//287 147//287
f 147//288 112//288 143//288
f 126//289 114//289 145//289
f 95//290 114//290 126//290
f 145//291 117//291 148//291
f 112//292 105//292 143//292
f 143//293 105//293 136//293
f 114//294 117//294 145//294
f 105//295 120//295 136//295
f 136//296 120//296 151//296
f 120//297 113//297 151//297
f 151//298 113//298 144//298
f 113//299 110//299 144//299
f 144//300 110//300 141//300
f 110//301 108//301 141//301
f 141//302 108//302 139//302
f 108//303 106//303 139//303
f 139//304 106//304 137//304
f 106//305 99//305 137//305
f 137//306 99//306 130//306
f 99//307 100//307 130//307
f 130//308 100//308 131//308
f 100//309 121//309 131//309
f 131//310 121//310 152//310
f 121//311 118//311 152//311
f 152//312 118//312 149//312
