# Created by FreeCAD <http://www.freecadweb.org>
v 119.500000 73.181633 36.588650
v 119.500000 73.737602 36.498295
v 99.000000 73.737602 36.498295
v 99.000000 73.181633 36.588650
v 99.000000 72.618370 36.588650
v 119.500000 72.618370 36.588650
v 119.500000 72.062393 36.498295
v 99.000000 72.062393 36.498295
v 99.000000 71.528114 36.319927
v 119.500000 73.461441 29.645325
v 99.000000 72.900002 29.600000
v 99.000000 73.461441 29.645325
v 119.500000 72.900002 29.600000
v 119.500000 71.528114 36.319927
v 119.500000 74.008339 29.780123
v 99.000000 74.008339 29.780123
v 119.500000 71.029373 36.058167
v 99.000000 71.029373 36.058167
v 119.500000 74.526527 30.000904
v 99.000000 74.526527 30.000904
v 119.500000 70.579071 35.719788
v 99.000000 70.579071 35.719788
v 99.000000 70.188881 35.313560
v 119.500000 75.002602 30.301950
v 99.000000 75.002602 30.301950
v 119.500000 70.188881 35.313560
v 119.500000 75.424210 30.675465
v 99.000000 75.424210 30.675465
v 119.500000 69.868912 34.849998
v 99.000000 69.868912 34.849998
v 119.500000 75.780441 31.111773
v 119.500000 69.627441 34.341118
v 99.000000 69.627441 34.341118
v 99.000000 75.780441 31.111773
v 99.000000 69.470734 33.800091
v 119.500000 76.062073 31.599577
v 99.000000 76.062073 31.599577
v 119.500000 69.470734 33.800091
v 119.500000 76.261810 32.126240
v 99.000000 76.261810 32.126240
v 119.500000 69.402840 33.240932
v 99.000000 69.402840 33.240932
v 99.000000 69.425522 32.678123
v 119.500000 76.374481 32.678123
v 99.000000 76.374481 32.678123
v 99.000000 76.397163 33.240932
v 119.500000 69.425522 32.678123
v 119.500000 76.397163 33.240932
v 119.500000 69.538185 32.126240
v 99.000000 69.538185 32.126240
v 119.500000 76.329269 33.800091
v 119.500000 69.737923 31.599577
v 99.000000 76.329269 33.800091
v 99.000000 76.172554 34.341118
v 99.000000 69.737923 31.599577
v 99.000000 70.019554 31.111773
v 119.500000 76.172554 34.341118
v 119.500000 70.019554 31.111773
v 119.500000 75.931091 34.849998
v 119.500000 70.375793 30.675465
v 99.000000 75.931091 34.849998
v 99.000000 70.375793 30.675465
v 119.500000 75.611115 35.313560
v 119.500000 70.797401 30.301950
v 99.000000 75.611115 35.313560
v 99.000000 70.797401 30.301950
v 99.000000 71.273468 30.000904
v 119.500000 71.273468 30.000904
v 119.500000 75.220932 35.719788
v 99.000000 75.220932 35.719788
v 119.500000 71.791664 29.780123
v 119.500000 74.770630 36.058167
v 99.000000 71.791664 29.780123
v 99.000000 74.770630 36.058167
v 119.500000 72.338562 29.645325
v 99.000000 72.338562 29.645325
v 119.500000 74.271881 36.319927
v 99.000000 74.271881 36.319927
v 119.500000 71.497475 32.568092
v 119.500000 71.410934 32.919193
v 119.500000 74.389061 32.919193
v 119.500000 73.597084 34.428185
v 119.500000 73.258972 31.643587
v 119.500000 72.900002 31.600000
v 119.500000 73.258972 34.556412
v 119.500000 71.665527 32.247902
v 119.500000 74.302521 32.568092
v 119.500000 73.597084 31.771816
v 119.500000 73.894684 34.222767
v 119.500000 74.134476 32.247902
v 119.500000 71.905319 31.977234
v 119.500000 73.894684 31.977234
v 119.500000 74.134476 33.952099
v 119.500000 72.202919 31.771816
v 119.500000 74.302521 33.631908
v 119.500000 71.905319 34.222767
v 119.500000 71.665527 33.952099
v 119.500000 72.202919 34.428185
v 119.500000 71.497475 33.631908
v 119.500000 72.541023 34.556412
v 119.500000 71.410934 33.280804
v 119.500000 72.900002 34.599998
v 119.500000 72.541023 31.643587
v 119.500000 74.389061 33.280804
v 99.000000 71.410934 32.919193
v 99.000000 71.497475 32.568092
v 99.000000 73.258972 31.643587
v 99.000000 72.900002 31.600000
v 99.000000 73.597084 34.428185
v 99.000000 73.258972 34.556412
v 99.000000 74.389061 32.919193
v 99.000000 74.302521 32.568092
v 99.000000 71.665527 32.247902
v 99.000000 73.597084 31.771816
v 99.000000 73.894684 34.222767
v 99.000000 74.134476 32.247902
v 99.000000 71.905319 31.977234
v 99.000000 73.894684 31.977234
v 99.000000 74.134476 33.952099
v 99.000000 72.202919 31.771816
v 99.000000 74.302521 33.631908
v 99.000000 71.905319 34.222767
v 99.000000 71.665527 33.952099
v 99.000000 72.202919 34.428185
v 99.000000 71.497475 33.631908
v 99.000000 72.541023 34.556412
v 99.000000 71.410934 33.280804
v 99.000000 72.541023 31.643587
v 99.000000 72.900002 34.599998
v 99.000000 74.389061 33.280804
vn 0.000000 0.160413 0.987050
vn 0.000000 0.000000 1.000000
vn 0.000000 -0.000000 1.000000
vn 0.000000 -0.160411 0.987050
vn 0.000000 -0.316667 0.948537
vn 0.000000 -0.160411 0.987050
vn 0.000000 0.080467 -0.996757
vn 0.000000 0.080467 -0.996757
vn 0.000000 -0.316667 0.948537
vn 0.000000 0.239315 -0.970942
vn 0.000000 0.239315 -0.970942
vn 0.000000 -0.464725 0.885455
vn 0.000000 -0.464725 0.885455
vn 0.000000 0.391969 -0.919978
vn 0.000000 0.391969 -0.919978
vn 0.000000 -0.600741 0.799444
vn 0.000000 -0.721199 0.692728
vn 0.000000 -0.600741 0.799444
vn 0.000000 0.534460 -0.845194
vn 0.000000 0.534460 -0.845194
vn 0.000000 -0.721199 0.692728
vn 0.000000 0.663125 -0.748509
vn 0.000000 0.663125 -0.748509
vn 0.000000 -0.822988 0.568059
vn 0.000000 -0.822988 0.568059
vn 0.000000 0.774607 -0.632443
vn 0.000000 -0.903448 0.428698
vn 0.000000 0.774607 -0.632443
vn 0.000000 -0.960519 0.278213
vn 0.000000 -0.903448 0.428698
vn 0.000000 0.866027 -0.499997
vn 0.000000 0.866027 -0.499997
vn 0.000000 -0.960519 0.278213
vn 0.000000 0.935016 -0.354606
vn 0.000000 0.935016 -0.354606
vn 0.000000 -0.992709 0.120536
vn -0.000000 -0.999189 -0.040269
vn 0.000000 -0.992709 0.120536
vn 0.000000 0.979790 -0.200031
vn 0.000000 0.979790 -0.200031
vn 0.000000 0.999189 -0.040269
vn -0.000000 -0.999189 -0.040269
vn 0.000000 0.999189 -0.040269
vn 0.000000 -0.979792 -0.200018
vn -0.000000 -0.979792 -0.200018
vn 0.000000 0.992709 0.120536
vn 0.000000 -0.935016 -0.354606
vn 0.000000 0.992709 0.120536
vn 0.000000 0.960516 0.278226
vn -0.000000 -0.935016 -0.354606
vn -0.000000 -0.866027 -0.499997
vn 0.000000 0.960516 0.278226
vn -0.000000 -0.866027 -0.499997
vn 0.000000 0.903453 0.428687
vn 0.000000 -0.774601 -0.632451
vn 0.000000 0.903453 0.428687
vn -0.000000 -0.774601 -0.632451
vn 0.000000 0.822981 0.568068
vn 0.000000 -0.663125 -0.748509
vn 0.000000 0.822981 0.568068
vn -0.000000 -0.663125 -0.748509
vn -0.000000 -0.534466 -0.845190
vn -0.000000 -0.534466 -0.845190
vn 0.000000 0.721206 0.692721
vn 0.000000 0.721206 0.692721
vn 0.000000 -0.391965 -0.919980
vn 0.000000 0.600741 0.799444
vn -0.000000 -0.391965 -0.919980
vn 0.000000 0.600741 0.799444
vn 0.000000 -0.239315 -0.970942
vn -0.000000 -0.239315 -0.970942
vn 0.000000 0.464719 0.885458
vn 0.000000 0.464719 0.885458
vn 0.000000 -0.080467 -0.996757
vn -0.000000 -0.080467 -0.996757
vn 0.000000 0.316667 0.948537
vn 0.000000 0.316667 0.948537
vn 0.000000 0.160413 0.987050
vn 1.000000 0.000000 0.000000
vn 1.000000 0.000000 0.000000
vn 1.000000 0.000000 -0.000000
vn 1.000000 0.000000 0.000000
vn 1.000000 0.000000 0.000000
vn 1.000000 0.000000 -0.000000
vn 1.000000 0.000000 0.000000
vn 1.000000 0.000000 0.000000
vn 1.000000 0.000000 0.000000
vn 1.000000 0.000000 0.000000
vn 1.000000 0.000000 -0.000000
vn 1.000000 0.000000 0.000000
vn 1.000000 0.000000 0.000000
vn 1.000000 0.000000 0.000000
vn 1.000000 0.000000 -0.000000
vn 1.000000 0.000000 0.000000
vn 1.000000 0.000000 -0.000000
vn 1.000000 0.000000 -0.000000
vn 1.000000 0.000000 0.000000
vn 1.000000 0.000000 0.000000
vn 1.000000 0.000000 -0.000000
vn 1.000000 0.000000 0.000000
vn 1.000000 0.000000 0.000000
vn 1.000000 0.000000 0.000000
vn 1.000000 0.000000 0.000000
vn 1.000000 0.000000 0.000000
vn 1.000000 0.000000 -0.000000
vn 1.000000 0.000000 0.000000
vn 1.000000 0.000000 -0.000000
vn 1.000000 0.000000 0.000000
vn 1.000000 0.000000 0.000000
vn 1.000000 0.000000 0.000000
vn 1.000000 0.000000 0.000000
vn 1.000000 0.000000 0.000000
vn 1.000000 0.000000 -0.000000
vn 1.000000 0.000000 0.000000
vn 1.000000 0.000000 -0.000000
vn 1.000000 0.000000 0.000000
vn 1.000000 0.000000 0.000000
vn 1.000000 0.000000 0.000000
vn 1.000000 0.000000 0.000000
vn 1.000000 0.000000 -0.000000
vn 1.000000 0.000000 0.000000
vn 1.000000 0.000000 -0.000000
vn 1.000000 0.000000 0.000000
vn 1.000000 0.000000 0.000000
vn 1.000000 0.000000 -0.000000
vn 1.000000 0.000000 0.000000
vn 1.000000 0.000000 -0.000000
vn 1.000000 0.000000 -0.000000
vn 1.000000 0.000000 0.000000
vn 1.000000 0.000000 0.000000
vn 1.000000 0.000000 0.000000
vn 1.000000 0.000000 0.000000
vn 1.000000 0.000000 0.000000
vn 1.000000 0.000000 0.000000
vn 1.000000 0.000000 -0.000000
vn 1.000000 0.000000 0.000000
vn 1.000000 0.000000 0.000000
vn 1.000000 0.000000 -0.000000
vn 1.000000 0.000000 -0.000000
vn 1.000000 0.000000 0.000000
vn 1.000000 0.000000 0.000000
vn 1.000000 0.000000 0.000000
vn 1.000000 0.000000 -0.000000
vn -1.000000 0.000000 -0.000000
vn -1.000000 0.000000 -0.000000
vn -1.000000 -0.000000 0.000000
vn -1.000000 0.000000 0.000000
vn -1.000000 0.000000 0.000000
vn -1.000000 0.000000 -0.000000
vn -1.000000 0.000000 -0.000000
vn -1.000000 -0.000000 0.000000
vn -1.000000 0.000000 0.000000
vn -1.000000 0.000000 -0.000000
vn -1.000000 -0.000000 0.000000
vn -1.000000 0.000000 0.000000
vn -1.000000 0.000000 0.000000
vn -1.000000 0.000000 -0.000000
vn -1.000000 0.000000 0.000000
vn -1.000000 -0.000000 0.000000
vn -1.000000 0.000000 -0.000000
vn -1.000000 0.000000 0.000000
vn -1.000000 -0.000000 0.000000
vn -1.000000 0.000000 -0.000000
vn -1.000000 0.000000 0.000000
vn -1.000000 0.000000 -0.000000
vn -1.000000 0.000000 -0.000000
vn -1.000000 -0.000000 0.000000
vn -1.000000 0.000000 0.000000
vn -1.000000 0.000000 0.000000
vn -1.000000 -0.000000 0.000000
vn -1.000000 0.000000 0.000000
vn -1.000000 0.000000 -0.000000
vn -1.000000 0.000000 0.000000
vn -1.000000 0.000000 0.000000
vn -1.000000 0.000000 -0.000000
vn -1.000000 0.000000 -0.000000
vn -1.000000 0.000000 -0.000000
vn -1.000000 -0.000000 0.000000
vn -1.000000 0.000000 -0.000000
vn -1.000000 0.000000 0.000000
vn -1.000000 0.000000 -0.000000
vn -1.000000 0.000000 -0.000000
vn -1.000000 -0.000000 0.000000
vn -1.000000 0.000000 -0.000000
vn -1.000000 0.000000 0.000000
vn -1.000000 0.000000 0.000000
vn -1.000000 0.000000 -0.000000
vn -1.000000 -0.000000 0.000000
vn -1.000000 0.000000 -0.000000
vn -1.000000 0.000000 0.000000
vn -1.000000 -0.000000 0.000000
vn -1.000000 0.000000 -0.000000
vn -1.000000 0.000000 -0.000000
vn -1.000000 -0.000000 0.000000
vn -1.000000 0.000000 0.000000
vn -1.000000 0.000000 0.000000
vn -1.000000 0.000000 0.000000
vn -1.000000 -0.000000 0.000000
vn -1.000000 0.000000 0.000000
vn -1.000000 0.000000 -0.000000
vn -1.000000 0.000000 -0.000000
vn -1.000000 0.000000 0.000000
vn -1.000000 -0.000000 0.000000
vn -1.000000 0.000000 -0.000000
vn -1.000000 -0.000000 0.000000
vn -1.000000 0.000000 -0.000000
vn -1.000000 0.000000 0.000000
vn -1.000000 0.000000 0.000000
vn 0.000000 1.000000 0.000000
vn 0.000000 1.000000 0.000000
vn 0.000000 0.970941 0.239320
vn 0.000000 0.970941 0.239320
vn 0.000000 -0.120536 0.992709
vn 0.000000 -0.120536 0.992709
vn 0.000000 0.885452 0.464731
vn 0.000000 0.885452 0.464731
vn 0.000000 -0.354605 0.935016
vn 0.000000 -0.354605 0.935016
vn 0.000000 0.748510 0.663124
vn 0.000000 0.748510 0.663124
vn 0.000000 -0.568063 0.822985
vn 0.000000 -0.568063 0.822985
vn 0.000000 0.568063 0.822985
vn 0.000000 0.568063 0.822985
vn 0.000000 -0.748510 0.663124
vn 0.000000 -0.885460 0.464715
vn 0.000000 -0.748510 0.663124
vn 0.000000 0.354612 0.935013
vn 0.000000 0.354612 0.935013
vn 0.000000 0.120534 0.992709
vn 0.000000 -0.885460 0.464715
vn 0.000000 0.120534 0.992709
vn 0.000000 -0.970941 0.239320
vn 0.000000 -1.000000 0.000000
vn 0.000000 -0.970941 0.239320
vn 0.000000 -0.970941 -0.239317
vn 0.000000 -1.000000 0.000000
vn 0.000000 -0.970941 -0.239317
vn 0.000000 -0.885460 -0.464715
vn -0.000000 -0.885460 -0.464715
vn 0.000000 -0.748510 -0.663124
vn -0.000000 -0.748510 -0.663124
vn -0.000000 -0.568063 -0.822985
vn 0.000000 -0.568063 -0.822985
vn -0.000000 -0.354601 -0.935018
vn 0.000000 -0.354601 -0.935018
vn -0.000000 -0.120536 -0.992709
vn 0.000000 -0.120536 -0.992709
vn 0.000000 0.120534 -0.992709
vn 0.000000 0.120534 -0.992709
vn 0.000000 0.354608 -0.935015
vn 0.000000 0.354608 -0.935015
vn 0.000000 0.568063 -0.822985
vn 0.000000 0.568063 -0.822985
vn 0.000000 0.748510 -0.663124
vn 0.000000 0.748510 -0.663124
vn 0.000000 0.885452 -0.464731
vn 0.000000 0.885452 -0.464731
vn 0.000000 0.970941 -0.239317
vn 0.000000 0.970941 -0.239317
f 1//1 2//1 3//1
f 1//2 4//2 5//2
f 6//3 1//3 5//3
f 7//4 5//4 8//4
f 7//5 8//5 9//5
f 7//6 6//6 5//6
f 10//7 11//7 12//7
f 10//8 13//8 11//8
f 14//9 7//9 9//9
f 15//10 12//10 16//10
f 15//11 10//11 12//11
f 17//12 9//12 18//12
f 17//13 14//13 9//13
f 19//14 16//14 20//14
f 19//15 15//15 16//15
f 21//16 18//16 22//16
f 21//17 22//17 23//17
f 21//18 17//18 18//18
f 24//19 20//19 25//19
f 24//20 19//20 20//20
f 26//21 21//21 23//21
f 27//22 24//22 25//22
f 27//23 25//23 28//23
f 29//24 23//24 30//24
f 29//25 26//25 23//25
f 31//26 27//26 28//26
f 32//27 30//27 33//27
f 31//28 28//28 34//28
f 32//29 33//29 35//29
f 32//30 29//30 30//30
f 36//31 31//31 34//31
f 36//32 34//32 37//32
f 38//33 32//33 35//33
f 39//34 36//34 37//34
f 39//35 37//35 40//35
f 41//36 35//36 42//36
f 41//37 42//37 43//37
f 41//38 38//38 35//38
f 44//39 39//39 40//39
f 44//40 40//40 45//40
f 44//41 45//41 46//41
f 47//42 41//42 43//42
f 48//43 44//43 46//43
f 49//44 47//44 43//44
f 49//45 43//45 50//45
f 51//46 48//46 46//46
f 52//47 49//47 50//47
f 51//48 46//48 53//48
f 51//49 53//49 54//49
f 52//50 50//50 55//50
f 52//51 55//51 56//51
f 57//52 51//52 54//52
f 58//53 52//53 56//53
f 59//54 57//54 54//54
f 60//55 58//55 56//55
f 59//56 54//56 61//56
f 60//57 56//57 62//57
f 63//58 59//58 61//58
f 64//59 60//59 62//59
f 63//60 61//60 65//60
f 64//61 62//61 66//61
f 64//62 66//62 67//62
f 68//63 64//63 67//63
f 69//64 63//64 65//64
f 69//65 65//65 70//65
f 71//66 68//66 67//66
f 72//67 69//67 70//67
f 71//68 67//68 73//68
f 72//69 70//69 74//69
f 75//70 71//70 73//70
f 75//71 73//71 76//71
f 77//72 72//72 74//72
f 77//73 74//73 78//73
f 13//74 75//74 76//74
f 13//75 76//75 11//75
f 2//76 77//76 78//76
f 2//77 78//77 3//77
f 1//78 3//78 4//78
f 79//79 49//79 52//79
f 79//80 80//80 49//80
f 44//81 48//81 81//81
f 82//82 72//82 77//82
f 10//83 83//83 84//83
f 82//84 77//84 85//84
f 10//85 84//85 13//85
f 86//86 79//86 52//86
f 86//87 52//87 58//87
f 39//88 81//88 87//88
f 39//89 44//89 81//89
f 15//90 88//90 83//90
f 89//91 69//91 72//91
f 15//92 83//92 10//92
f 89//93 72//93 82//93
f 36//94 87//94 90//94
f 60//95 86//95 58//95
f 36//96 39//96 87//96
f 91//97 86//97 60//97
f 19//98 88//98 15//98
f 31//99 36//99 90//99
f 24//100 92//100 88//100
f 63//101 69//101 89//101
f 24//102 88//102 19//102
f 63//103 89//103 93//103
f 27//104 90//104 92//104
f 27//105 31//105 90//105
f 27//106 92//106 24//106
f 64//107 91//107 60//107
f 64//108 94//108 91//108
f 59//109 63//109 93//109
f 59//110 93//110 95//110
f 96//111 17//111 21//111
f 96//112 21//112 26//112
f 68//113 94//113 64//113
f 97//114 26//114 29//114
f 97//115 96//115 26//115
f 98//116 14//116 17//116
f 98//117 17//117 96//117
f 99//118 29//118 32//118
f 99//119 32//119 38//119
f 99//120 97//120 29//120
f 100//121 14//121 98//121
f 100//122 6//122 7//122
f 57//123 59//123 95//123
f 100//124 7//124 14//124
f 101//125 99//125 38//125
f 101//126 38//126 41//126
f 102//127 1//127 6//127
f 71//128 94//128 68//128
f 71//129 103//129 94//129
f 102//130 6//130 100//130
f 80//131 41//131 47//131
f 80//132 47//132 49//132
f 51//133 95//133 104//133
f 51//134 57//134 95//134
f 80//135 101//135 41//135
f 75//136 84//136 103//136
f 85//137 77//137 2//137
f 85//138 2//138 1//138
f 75//139 103//139 71//139
f 85//140 1//140 102//140
f 48//141 104//141 81//141
f 48//142 51//142 104//142
f 13//143 84//143 75//143
f 105//144 106//144 50//144
f 107//145 12//145 108//145
f 74//146 109//146 78//146
f 108//147 12//147 11//147
f 78//148 109//148 110//148
f 111//149 40//149 112//149
f 106//150 113//150 55//150
f 45//151 40//151 111//151
f 55//152 113//152 56//152
f 114//153 16//153 107//153
f 70//154 115//154 74//154
f 107//155 16//155 12//155
f 74//156 115//156 109//156
f 112//157 37//157 116//157
f 113//158 62//158 56//158
f 40//159 37//159 112//159
f 113//160 117//160 62//160
f 114//161 20//161 16//161
f 37//162 34//162 116//162
f 118//163 25//163 114//163
f 114//164 25//164 20//164
f 70//165 65//165 115//165
f 116//166 28//166 118//166
f 34//167 28//167 116//167
f 115//168 65//168 119//168
f 118//169 28//169 25//169
f 120//170 66//170 117//170
f 117//171 66//171 62//171
f 65//172 61//172 119//172
f 119//173 61//173 121//173
f 120//174 67//174 66//174
f 18//175 122//175 22//175
f 22//176 122//176 23//176
f 23//177 123//177 30//177
f 122//178 123//178 23//178
f 9//179 124//179 18//179
f 18//180 124//180 122//180
f 30//181 125//181 33//181
f 33//182 125//182 35//182
f 123//183 125//183 30//183
f 61//184 54//184 121//184
f 9//185 126//185 124//185
f 5//186 126//186 8//186
f 8//187 126//187 9//187
f 125//188 127//188 35//188
f 35//189 127//189 42//189
f 120//190 73//190 67//190
f 128//191 73//191 120//191
f 5//192 129//192 126//192
f 54//193 53//193 121//193
f 4//194 129//194 5//194
f 121//195 53//195 130//195
f 42//196 105//196 43//196
f 43//197 105//197 50//197
f 108//198 76//198 128//198
f 128//199 76//199 73//199
f 127//200 105//200 42//200
f 4//201 110//201 129//201
f 130//202 46//202 111//202
f 78//203 110//203 3//203
f 53//204 46//204 130//204
f 3//205 110//205 4//205
f 108//206 11//206 76//206
f 50//207 106//207 55//207
f 46//208 45//208 111//208
f 101//209 80//209 127//209
f 127//210 80//210 105//210
f 80//211 79//211 105//211
f 105//212 79//212 106//212
f 108//213 83//213 107//213
f 84//214 83//214 108//214
f 79//215 86//215 106//215
f 106//216 86//216 113//216
f 107//217 88//217 114//217
f 83//218 88//218 107//218
f 86//219 91//219 113//219
f 113//220 91//220 117//220
f 114//221 92//221 118//221
f 88//222 92//222 114//222
f 91//223 94//223 117//223
f 117//224 94//224 120//224
f 118//225 90//225 116//225
f 116//226 90//226 112//226
f 92//227 90//227 118//227
f 120//228 103//228 128//228
f 94//229 103//229 120//229
f 128//230 84//230 108//230
f 90//231 87//231 112//231
f 103//232 84//232 128//232
f 112//233 81//233 111//233
f 111//234 81//234 130//234
f 87//235 81//235 112//235
f 130//236 104//236 121//236
f 81//237 104//237 130//237
f 104//238 95//238 121//238
f 121//239 93//239 119//239
f 95//240 93//240 121//240
f 119//241 89//241 115//241
f 93//242 89//242 119//242
f 89//243 82//243 115//243
f 115//244 82//244 109//244
f 82//245 85//245 109//245
f 109//246 85//246 110//246
f 85//247 102//247 110//247
f 110//248 102//248 129//248
f 102//249 100//249 129//249
f 129//250 100//250 126//250
f 100//251 98//251 126//251
f 126//252 98//252 124//252
f 98//253 96//253 124//253
f 124//254 96//254 122//254
f 96//255 97//255 122//255
f 122//256 97//256 123//256
f 97//257 99//257 123//257
f 123//258 99//258 125//258
f 99//259 101//259 125//259
f 125//260 101//260 127//260
